<?xml version="1.0" encoding="UTF-8" standalone="no"?>
<!-- Uploaded to: SVG Repo, www.svgrepo.com, Generator: SVG Repo Mixer Tools -->

<svg
   version="1.1"
   id="_x34_"
   viewBox="0 0 512 512"
   xml:space="preserve"
   sodipodi:docname="pdf.svg"
   inkscape:version="1.3.2 (091e20e, 2023-11-25, custom)"
   xmlns:inkscape="http://www.inkscape.org/namespaces/inkscape"
   xmlns:sodipodi="http://sodipodi.sourceforge.net/DTD/sodipodi-0.dtd"
   xmlns="http://www.w3.org/2000/svg"
   xmlns:svg="http://www.w3.org/2000/svg"><defs
   id="defs7" /><sodipodi:namedview
   id="namedview7"
   pagecolor="#ffffff"
   bordercolor="#000000"
   borderopacity="0.25"
   inkscape:showpageshadow="2"
   inkscape:pageopacity="0.0"
   inkscape:pagecheckerboard="0"
   inkscape:deskcolor="#d1d1d1"
   inkscape:zoom="1.1228082"
   inkscape:cx="245.36692"
   inkscape:cy="222.2107"
   inkscape:window-width="1920"
   inkscape:window-height="1009"
   inkscape:window-x="-8"
   inkscape:window-y="-8"
   inkscape:window-maximized="1"
   inkscape:current-layer="_x34_" />
<g
   id="g7"
   transform="matrix(1.1666325,0,0,1,-42.657916,0)">
	<polygon
   style="fill:#fffefe"
   points="47.791,512 47.791,0.002 357.613,0.002 412.491,54.881 475.435,117.825 475.435,512 "
   id="polygon1" />
	<rect
   x="36.564999"
   y="34.294998"
   style="fill:#b43331"
   width="205.097"
   height="91.767998"
   id="rect1" />
	<g
   id="g5">
		<g
   id="g3">
			<path
   style="fill:#fffefe"
   d="m 110.133,64.379 c -0.905,-2.186 -2.111,-4.146 -3.769,-5.804 -1.659,-1.658 -3.694,-3.015 -6.031,-3.92 -2.412,-0.98 -5.127,-1.432 -8.141,-1.432 h -22.54 v 58.195 H 81.035 V 89.481 h 11.157 c 3.015,0 5.729,-0.452 8.141,-1.432 2.337,-0.905 4.371,-2.261 6.031,-3.92 1.658,-1.658 2.865,-3.543 3.769,-5.804 0.828,-2.186 1.281,-4.523 1.281,-6.935 -0.001,-2.488 -0.453,-4.825 -1.281,-7.011 z M 97.845,77.118 c -1.508,1.432 -3.618,2.186 -6.182,2.186 H 81.035 V 63.323 h 10.628 c 2.564,0 4.674,0.754 6.182,2.261 1.432,1.432 2.185,3.392 2.185,5.804 0.001,2.338 -0.753,4.298 -2.185,5.73 z"
   id="path1" />
			<path
   style="fill:#fffefe"
   d="m 164.558,75.761 c -0.075,-2.035 -0.15,-3.844 -0.377,-5.503 -0.225,-1.659 -0.603,-3.166 -1.131,-4.598 -0.527,-1.357 -1.206,-2.714 -2.111,-3.92 -2.035,-2.94 -4.522,-5.126 -7.312,-6.483 -2.864,-1.357 -6.256,-2.035 -10.252,-2.035 H 122.42 v 58.195 h 20.956 c 3.996,0 7.388,-0.678 10.252,-2.035 2.79,-1.357 5.277,-3.543 7.312,-6.483 0.905,-1.206 1.584,-2.563 2.111,-3.92 0.528,-1.432 0.905,-2.94 1.131,-4.598 0.227,-1.658 0.301,-3.468 0.377,-5.503 0.075,-1.96 0.075,-4.146 0.075,-6.558 -10e-4,-2.412 -10e-4,-4.599 -0.076,-6.559 z M 153.175,88.2 c 0,1.734 -0.15,3.091 -0.302,4.297 -0.151,1.131 -0.376,2.186 -0.678,2.94 -0.301,0.829 -0.754,1.583 -1.281,2.261 -1.885,2.412 -4.749,3.543 -8.518,3.543 h -8.668 V 63.323 h 8.668 c 3.769,0 6.634,1.206 8.518,3.618 0.528,0.678 0.98,1.357 1.281,2.186 0.302,0.829 0.528,1.809 0.678,3.015 0.152,1.131 0.302,2.563 0.302,4.221 0.075,1.659 0.075,3.694 0.075,5.955 0.001,2.263 0.001,4.223 -0.075,5.882 z"
   id="path2" />
			<path
   style="fill:#fffefe"
   d="M 213.18,63.323 V 53.222 h -38.37 v 58.195 h 11.383 V 87.823 h 22.992 V 77.646 H 186.193 V 63.323 Z"
   id="path3" />
		</g>
		<g
   id="g4">
			<path
   style="fill:#fffefe"
   d="m 110.133,64.379 c -0.905,-2.186 -2.111,-4.146 -3.769,-5.804 -1.659,-1.658 -3.694,-3.015 -6.031,-3.92 -2.412,-0.98 -5.127,-1.432 -8.141,-1.432 h -22.54 v 58.195 H 81.035 V 89.481 h 11.157 c 3.015,0 5.729,-0.452 8.141,-1.432 2.337,-0.905 4.371,-2.261 6.031,-3.92 1.658,-1.658 2.865,-3.543 3.769,-5.804 0.828,-2.186 1.281,-4.523 1.281,-6.935 -0.001,-2.488 -0.453,-4.825 -1.281,-7.011 z M 97.845,77.118 c -1.508,1.432 -3.618,2.186 -6.182,2.186 H 81.035 V 63.323 h 10.628 c 2.564,0 4.674,0.754 6.182,2.261 1.432,1.432 2.185,3.392 2.185,5.804 0.001,2.338 -0.753,4.298 -2.185,5.73 z"
   id="path4" />
		</g>
	</g>
	<polygon
   style="opacity:0.08;fill:#040000"
   points="47.791,512 47.791,419.581 247.706,219.667 259.541,207.832 266.099,201.273 277.029,190.343 289.995,177.377 412.491,54.881 475.435,117.825 475.435,512 "
   id="polygon5" />
	<polygon
   style="fill:#bbbbba"
   points="357.6,0 475.435,117.836 357.6,117.836 "
   id="polygon6" />
	<g
   id="g6">
		<path
   style="fill:#b43331"
   d="m 414.376,370.658 c -2.488,-4.372 -5.88,-8.518 -10.101,-12.287 -3.467,-3.166 -7.538,-6.106 -12.137,-8.82 -18.543,-10.93 -45.003,-16.207 -80.961,-16.207 h -3.618 c -1.96,-1.809 -3.996,-3.618 -6.106,-5.503 -13.644,-12.287 -24.499,-25.63 -32.942,-40.48 16.583,-36.561 24.499,-69.126 23.519,-96.867 -0.151,-4.674 -0.83,-9.046 -2.036,-13.117 -1.808,-6.558 -4.824,-12.363 -9.046,-17.112 -0.075,-0.075 -0.075,-0.075 -0.15,-0.151 -6.709,-7.538 -16.056,-11.835 -25.555,-11.835 -9.574,0 -18.393,4.146 -24.802,11.76 -6.331,7.538 -9.724,17.866 -9.875,30.002 -0.225,18.544 1.282,36.108 4.448,52.315 0.301,1.282 0.528,2.563 0.829,3.844 3.166,14.7 7.84,28.645 13.871,41.611 -7.086,14.398 -14.248,26.836 -19.222,35.279 -3.769,6.408 -7.916,13.117 -12.213,19.826 -19.373,3.468 -35.807,7.689 -50.129,12.966 -19.374,7.011 -34.903,16.056 -46.059,26.836 -7.238,6.935 -12.137,14.323 -14.55,22.012 -2.563,7.915 -2.411,15.83 0.453,22.916 2.638,6.558 7.387,12.061 13.719,15.83 1.508,0.905 3.091,1.658 4.749,2.337 4.825,1.96 10.102,3.015 15.604,3.015 12.74,0 25.856,-5.503 36.938,-15.378 20.654,-18.469 41.988,-48.169 54.576,-66.94 10.327,-1.583 21.559,-2.94 34.224,-4.297 14.927,-1.508 28.118,-2.412 40.104,-2.865 3.694,3.317 7.237,6.483 10.63,9.498 18.846,16.81 33.168,28.947 46.134,37.465 0,0.075 0.075,0.075 0.15,0.075 5.127,3.392 10.026,6.181 14.926,8.443 5.502,2.563 11.081,3.92 16.81,3.92 7.237,0 14.021,-2.186 19.675,-6.181 5.729,-4.146 9.875,-10.101 11.76,-16.81 2.188,-8.064 0.906,-17.034 -3.617,-25.1 z M 247.706,219.667 c -1.056,-9.348 -1.508,-19.072 -1.357,-29.324 0.15,-9.724 3.694,-16.283 8.895,-16.283 3.919,0 8.066,3.543 9.951,10.327 0.528,2.035 0.905,4.372 0.98,7.01 0.15,3.166 0.075,6.483 -0.075,9.875 -0.452,9.574 -2.112,19.75 -4.976,30.681 -1.734,7.011 -3.995,14.323 -6.784,21.936 -3.167,-10.703 -5.429,-22.086 -6.634,-34.222 z M 121.968,418.073 c -1.282,-3.166 0.15,-9.272 7.99,-16.81 11.985,-11.458 30.755,-20.504 56.914,-27.364 -4.976,6.784 -9.875,12.966 -14.625,18.619 -7.237,8.744 -14.172,16.132 -20.429,21.71 -5.351,4.824 -11.232,7.84 -16.81,8.594 -0.98,0.151 -1.96,0.226 -2.94,0.226 -4.899,10e-4 -8.895,-1.959 -10.1,-4.975 z m 120.46,-80.131 0.528,-0.829 -0.829,0.151 c 0.15,-0.377 0.377,-0.754 0.602,-1.055 3.167,-5.352 7.161,-12.212 11.458,-20.127 l 0.377,0.829 0.98,-2.035 c 3.166,4.523 6.634,8.971 10.252,13.267 1.735,2.035 3.544,3.995 5.352,5.955 l -1.205,0.075 1.055,0.98 c -3.09,0.226 -6.331,0.528 -9.573,0.829 -2.036,0.226 -4.147,0.377 -6.257,0.603 -4.372,0.452 -8.669,0.905 -12.74,1.357 z m 126.87,47.038 c -8.97,-5.729 -18.997,-13.795 -31.36,-24.575 17.564,1.809 31.36,5.654 41.159,11.383 4.297,2.488 7.538,5.051 9.724,7.538 3.619,3.844 4.901,7.312 4.221,9.649 -0.602,2.337 -3.241,3.92 -6.483,3.92 -1.885,0 -3.844,-0.452 -5.879,-1.432 -3.468,-1.658 -7.086,-3.694 -10.931,-6.181 -0.151,0 -0.301,-0.151 -0.451,-0.302 z"
   id="path6" />
	</g>
</g>
</svg>
